<svg id="圖層_1" data-name="圖層 1" xmlns="http://www.w3.org/2000/svg" viewBox="0 0 24 24"><defs><style>.cls-1{fill:none;}.cls-2{fill:#fff;}.cls-3{fill:#da2416;}</style></defs><title>訊息通知</title><path class="cls-1" d="M334,376h24v24H334Z" transform="translate(-334 -376)"/><path class="cls-2" d="M349,381v7h-9.83l-.59.59-.58.58V381h11m1-2H337a1,1,0,0,0-1,1v14l4-4h10a1,1,0,0,0,1-1v-9A1,1,0,0,0,350,379Zm5,4h-2v9H340v2a1,1,0,0,0,1,1h11l4,4V384A1,1,0,0,0,355,383Z" transform="translate(-334 -376)"/><circle class="cls-3" cx="18.5" cy="5.58" r="4"/></svg>