<svg id="圖層_1" data-name="圖層 1" xmlns="http://www.w3.org/2000/svg" viewBox="0 0 24 24"><defs><style>.cls-1{fill:none;}.cls-2{fill:#755c68;}</style></defs><title>參團人數</title><rect class="cls-1" width="24" height="24"/><path class="cls-2" d="M307.73,320.32c-1.57-4.08-7.16-4.3-5.81-10.23a.5.5,0,0,0-.75-.55,9.33,9.33,0,0,0-4.05,12,.5.5,0,0,1-.75.59,5,5,0,0,1-1.84-4.75.5.5,0,0,0-.91-.34,9.4,9.4,0,0,0-1.37,5.25,8.05,8.05,0,0,0,6.81,7.54A8.58,8.58,0,0,0,306,328,6.91,6.91,0,0,0,307.73,320.32Zm-9.28,5a3.09,3.09,0,0,0,2.38-2.31c.33-1.43-1-2.83-.09-5.09.33,1.87,3.27,3,3.27,5.08C304.09,325.56,301.35,327.73,298.45,325.35Z" transform="translate(-288.25 -307.97)"/></svg>