<svg id="圖層_1" data-name="圖層 1" xmlns="http://www.w3.org/2000/svg" viewBox="0 0 24.56 24.5"><defs><style>.cls-1{stroke:#231815;stroke-width:0.5px;}</style></defs><title>尋找旅伴-1</title><path class="cls-1" d="M936.57,534.22a.65.65,0,0,1-.33-.64c0-1.41,0-2.83,0-4.24a4.25,4.25,0,0,1,3.68-4.27l3.21-.51.14,0c0-.25,0-.5,0-.74,0,0-.09-.12-.15-.15a4.57,4.57,0,0,1-2.52-3.17,5.57,5.57,0,0,1-.13-1.16c0-.59,0-1.19,0-1.82h-2.33a.45.45,0,0,1-.47-.38,2.49,2.49,0,0,1,.42-1.87,2,2,0,0,1,1.56-.79c.27,0,.54,0,.84,0a4.68,4.68,0,0,1,2.16-3.48,4.5,4.5,0,0,1,2.83-.73,4.73,4.73,0,0,1,4.37,4.21h.69a2,2,0,0,1,2.13,2.12v.37c0,.37-.18.55-.55.55h-2.27v1.85a4.5,4.5,0,0,1-.38,1.91,4.59,4.59,0,0,1-2.23,2.36c-.15.08-.22.15-.2.32s0,.39,0,.61l1.36.22c.83.14,1.66.23,2.47.42a4.21,4.21,0,0,1,3.2,4.07c0,1.45,0,2.89,0,4.34a.64.64,0,0,1-.34.64Zm2-17.67h4.47a.47.47,0,0,1,.48.47.46.46,0,0,1-.49.46H941.4c0,.49,0,.95,0,1.41a8.33,8.33,0,0,0,.09,1.33,3.74,3.74,0,0,0,7.35-.3,23.77,23.77,0,0,0,0-2.39l0,0h-1.53a.41.41,0,0,1-.44-.29.62.62,0,0,1,.06-.45.79.79,0,0,1,.47-.19h4.29a1.19,1.19,0,0,0,0-.19,1.11,1.11,0,0,0-1.17-1H939.6A1.08,1.08,0,0,0,938.61,516.55ZM940,533.26h3.28v-2.52c0-.38.17-.55.56-.55.21,0,.41,0,.64,0l-.05-.1q-1.56-2.08-3.13-4.15a.36.36,0,0,0-.27-.1c-.28,0-.55.09-.83.13a3.33,3.33,0,0,0-3,3.46v3.83h1.88v-2.57a.47.47,0,0,1,.29-.46.38.38,0,0,1,.47.08.74.74,0,0,1,.17.43C940,531.58,940,532.41,940,533.26Zm5.82-3.07c.26,0,.48,0,.7,0,.38,0,.55.17.56.56v2.51h3.23v-2.48c0-.37.18-.6.48-.59s.46.22.46.6v2.47h1.87c0-1.37,0-2.72,0-4.07a3.25,3.25,0,0,0-2.38-3.08c-.46-.13-1-.17-1.42-.27a.31.31,0,0,0-.37.15l-3,4C945.92,530,945.88,530.09,945.82,530.19Zm3-15.76a3.72,3.72,0,0,0-3.94-3.27c-1.76.1-3.62,1.86-3.44,3.27Zm-3.7,15.06,2.89-3.85-1.47-.23a.49.49,0,0,1-.48-.56v-.8h-1.87v.79a.51.51,0,0,1-.49.57l-1.46.24Zm-.92,1.64v2.13h1.9v-2.13Z" transform="translate(-929.76 -509.97)"/><path class="cls-1" d="M930,533.61a.59.59,0,0,1,.64-.33h.77V517c0-.36.18-.58.47-.57s.46.22.46.58c0,.71,0,1.42,0,2.13a.3.3,0,0,0,.22.34c2.11.83,4.21,1.68,6.31,2.52l.15.06a.46.46,0,0,1,.35.47.47.47,0,0,1-.34.45l-1.68.67-4.8,1.92c-.12,0-.21.08-.21.25,0,2.45,0,4.9,0,7.36,0,0,0,.06,0,.12h.77c.36,0,.54.1.61.35s0,.4-.31.59H930Zm7.65-11.11-5.29-2.12v4.23Z" transform="translate(-929.76 -509.97)"/><path class="cls-1" d="M945.1,521.28a1.89,1.89,0,0,1-1.55-.83.48.48,0,0,1,.07-.72c.24-.17.49-.1.7.18a.92.92,0,0,0,1.58,0,.49.49,0,0,1,.5-.24.41.41,0,0,1,.37.34.71.71,0,0,1-.1.43A1.81,1.81,0,0,1,945.1,521.28Z" transform="translate(-929.76 -509.97)"/><path class="cls-1" d="M945.16,516.55a.46.46,0,0,1,.46.45.47.47,0,0,1-.47.48.47.47,0,1,1,0-.93Z" transform="translate(-929.76 -509.97)"/></svg>