<svg id="圖層_1" data-name="圖層 1" xmlns="http://www.w3.org/2000/svg" viewBox="0 0 24 24"><defs><style>.cls-1{fill:none;}.cls-2{fill:#755c68;}</style></defs><title>參團金額</title><rect class="cls-1" width="24" height="24"/><path class="cls-2" d="M307.24,311.69a10,10,0,1,0,10,10A10,10,0,0,0,307.24,311.69Zm0,18a8,8,0,1,1,8-8A8,8,0,0,1,307.24,329.69Zm.89-8.9c-1.78-.59-2.64-1-2.64-1.9s1.11-1.39,1.81-1.39a1.93,1.93,0,0,1,1.9,1.34l1.58-.67a3.43,3.43,0,0,0-2.66-2.23v-1.25h-1.75V316a3.08,3.08,0,0,0-2.62,3c0,2.27,2.25,2.91,3.35,3.31,1.58.56,2.28,1.07,2.28,2,0,1.13-1.05,1.61-2,1.61a2.64,2.64,0,0,1-2.4-2.09l-1.66.67a4,4,0,0,0,3,3v1.29h1.75v-1.24a3.32,3.32,0,0,0,3-3.22C311.14,322.84,310.53,321.62,308.13,320.79Z" transform="translate(-295.24 -309.69)"/></svg>