<svg id="圖層_1" data-name="圖層 1" xmlns="http://www.w3.org/2000/svg" viewBox="0 0 24 24"><defs><style>.cls-1{fill:none;}.cls-2{fill:#8e8e93;}</style></defs><title>訊息喇叭</title><g id="Group_420" data-name="Group 420"><rect id="Rectangle_149" data-name="Rectangle 149" class="cls-1" width="24" height="24"/></g><path id="Path_149" data-name="Path 149" class="cls-2" d="M320.12,322.41v2h4v-2Z" transform="translate(-302.12 -311.41)"/><path id="Path_150" data-name="Path 150" class="cls-2" d="M318.12,329l3.2,2.39,1.2-1.6-3.2-2.4Z" transform="translate(-302.12 -311.41)"/><path id="Path_151" data-name="Path 151" class="cls-2" d="M322.52,317l-1.2-1.6-3.2,2.4,1.2,1.6Z" transform="translate(-302.12 -311.41)"/><path id="Path_152" data-name="Path 152" class="cls-2" d="M306.12,320.41a2,2,0,0,0-2,2v2a2,2,0,0,0,2,2h1v4h2v-4h1l5,3v-12l-5,3Zm5,1.71,2-1.18v4.94l-2-1.18-.48-.29h-4.55v-2h4.55Z" transform="translate(-302.12 -311.41)"/><path id="Path_153" data-name="Path 153" class="cls-2" d="M317.62,323.41a4.47,4.47,0,0,0-1.5-3.35v6.69A4.46,4.46,0,0,0,317.62,323.41Z" transform="translate(-302.12 -311.41)"/></svg>