<svg id="圖層_1" data-name="圖層 1" xmlns="http://www.w3.org/2000/svg" viewBox="0 0 24 24"><defs><style>.cls-1{fill:none;}.cls-2{fill:#755c68;}</style></defs><title>參團日期</title><path class="cls-1" d="M299.37,306.82h24v24h-24Z" transform="translate(-299.37 -306.82)"/><path class="cls-2" d="M306.37,317.82h2v2h-2Zm14-5v14a2,2,0,0,1-2,2h-14a2,2,0,0,1-2-2v-14a2,2,0,0,1,2-2h1v-2h2v2h8v-2h2v2h1A2,2,0,0,1,320.37,312.82Zm-16,2h14v-2h-14Zm14,12v-10h-14v10Zm-4-7h2v-2h-2Zm-4,0h2v-2h-2Z" transform="translate(-299.37 -306.82)"/></svg>