<svg id="圖層_1" data-name="圖層 1" xmlns="http://www.w3.org/2000/svg" viewBox="0 0 24 24"><defs><style>.cls-1{fill:none;}.cls-2{fill:#755c68;}</style></defs><title>參團人</title><path class="cls-1" d="M297.65,309.46h24v24h-24Z" transform="translate(-297.65 -309.46)"/><path class="cls-2" d="M306.65,323.21c-2.34,0-7,1.17-7,3.5v1.75h14v-1.75C313.65,324.38,309,323.21,306.65,323.21ZM302,326.46a9.31,9.31,0,0,1,9.32,0Zm4.66-5a3.5,3.5,0,1,0-3.5-3.5A3.5,3.5,0,0,0,306.65,321.46Zm0-5a1.5,1.5,0,1,1-1.5,1.5A1.5,1.5,0,0,1,306.65,316.46Zm7,6.81a4.19,4.19,0,0,1,2,3.44v1.75h4v-1.75C319.65,324.69,316.15,323.54,313.69,323.27Zm-1-1.81a3.5,3.5,0,0,0,0-7,3.45,3.45,0,0,0-1.5.35,5.46,5.46,0,0,1,0,6.3A3.45,3.45,0,0,0,312.65,321.46Z" transform="translate(-297.65 -309.46)"/></svg>