<svg id="圖層_2" data-name="圖層 2" xmlns="http://www.w3.org/2000/svg" viewBox="0 0 24 24.5"><defs><style>.cls-1{fill:none;}.cls-2{fill:#df2b14;stroke:#df2b14;stroke-miterlimit:10;}.cls-3{fill:#fff;}</style></defs><title>新增地點-現在位置</title><rect class="cls-1" width="24" height="24"/><path class="cls-2" d="M284.12,359.46a7.66,7.66,0,0,0-4.21,14.06,7.16,7.16,0,0,0,.66.39c.19.1.4.18.6.27l2.76,7.05.19.49.19-.49,2.76-7.05c.2-.09.41-.17.6-.27a7.16,7.16,0,0,0,.66-.39,7.66,7.66,0,0,0-4.21-14.06Zm-3.79,13.84,0,0h0v0Z" transform="translate(-271.7 -358.59)"/><polygon class="cls-3" points="12.41 3.05 13.94 6.14 17.36 6.64 14.89 9.05 15.47 12.45 12.41 10.85 9.36 12.45 9.94 9.05 7.47 6.64 10.89 6.14 12.41 3.05"/></svg>