<svg id="圖層_1" data-name="圖層 1" xmlns="http://www.w3.org/2000/svg" viewBox="0 0 24.18 24.16"><defs><style>.cls-1{stroke:#000;stroke-miterlimit:10;stroke-width:0.25px;}</style></defs><title>附近旅伴-1</title><path class="cls-1" d="M1281.51,413.09h-.94a1.29,1.29,0,0,1-.19,0,4.71,4.71,0,0,0-3,7.63.46.46,0,0,0,.66.12.47.47,0,0,0,.09-.68L1278,420a3.65,3.65,0,0,1-.33-3.87,3.77,3.77,0,1,1,6.4,3.93c-.75,1-1.56,2-2.34,3-.21.28-.43.56-.67.86-.32-.41-.61-.8-.93-1.18a.79.79,0,0,0-.37-.25.4.4,0,0,0-.45.22.48.48,0,0,0,.06.57c.42.52.83,1.05,1.24,1.58s.6.38.91,0l1.38-1.76c0-.06.09-.1.13-.16.73.47,1.44.91,2.14,1.38a.69.69,0,0,0,.84,0c2-1.28,4-2.54,6-3.81l.26-.15v5.21c0,.34.19.56.46.56a.5.5,0,0,0,.48-.55v-5a2.44,2.44,0,0,1,0-.26l.1.05c2,1.26,4,2.51,5.92,3.78a.32.32,0,0,1,.13.24c0,.57,0,1.15,0,1.72,0,.05,0,.1,0,.2l-.17-.2a3.85,3.85,0,0,0-6.3,1.32,3.69,3.69,0,0,0,.52,3.7c.84,1.13,1.73,2.23,2.59,3.34.33.42.62.42.94,0l2.21-2.83.22-.28v4.22l-.23-.14c-.32-.2-.64-.42-1-.61a.47.47,0,0,0-.64.15.48.48,0,0,0,.13.62l.15.11,1.66,1.05c.39.25.59.21.85-.17V423.92a1.9,1.9,0,0,0-.38-.37l-6.74-4.31a.72.72,0,0,0-.89,0c-2.15,1.39-4.3,2.75-6.45,4.13a.32.32,0,0,1-.43,0c-.28-.2-.58-.38-.87-.56l-.91-.58c.44-.57.88-1.11,1.29-1.67a4.45,4.45,0,0,0,.88-2.53,4.69,4.69,0,0,0-3.58-4.79C1282,413.17,1281.73,413.13,1281.51,413.09Zm14.88,20.52c-.58-.74-1.16-1.46-1.71-2.2a8.49,8.49,0,0,1-.94-1.39,2.9,2.9,0,1,1,5.57-1.2,3,3,0,0,1-.67,1.94c-.73.92-1.45,1.85-2.17,2.78Z" transform="translate(-1276.2 -412.96)"/><path d="M1299.81,437a.79.79,0,0,1-.42-.16l-1.43-.91-.24-.16-.14-.09a.49.49,0,0,1-.13-.64.47.47,0,0,1,.65-.14c.23.13.45.27.67.41l.3.19.15.09.07,0v-4.17l-.06.09-.14.16-1,1.25-1.24,1.59a.65.65,0,0,1-.48.31h0a.64.64,0,0,1-.47-.31l-.79-1c-.6-.76-1.22-1.54-1.81-2.33a3.72,3.72,0,0,1-.52-3.72,3.86,3.86,0,0,1,6.32-1.31l.1.11,0,.06a.13.13,0,0,0,0-.06.65.65,0,0,0,0-.11v-.29c0-.47,0-.95,0-1.43a.33.33,0,0,0-.12-.23l-5.44-3.48-.48-.3-.06,0,0,0v5.2c0,.33-.2.56-.48.56h0c-.28,0-.47-.23-.47-.57v-5.2l-.09.06-.16.09-1.36.87c-1.51,1-3.07,1.95-4.6,2.94a.68.68,0,0,1-.84,0c-.5-.33-1-.64-1.52-1L1283,423l0,0-.09.1-.57.73-.82,1a.6.6,0,0,1-.46.3h0a.64.64,0,0,1-.46-.3l-1.23-1.58a.46.46,0,0,1-.07-.57.4.4,0,0,1,.46-.22.73.73,0,0,1,.38.25c.23.27.44.54.67.83l.25.33.22-.28.45-.57.72-.91c.53-.68,1.09-1.38,1.61-2.09a3.59,3.59,0,0,0,.33-4,3.76,3.76,0,0,0-6.71.11A3.6,3.6,0,0,0,1278,420l.06.09a.61.61,0,0,1,.07.1.46.46,0,0,1-.09.69.47.47,0,0,1-.67-.12,4.94,4.94,0,0,1-1-2.06,4.65,4.65,0,0,1,0-1.93,4.8,4.8,0,0,1,2.12-3,4.59,4.59,0,0,1,1.82-.66l.14,0h1l.21,0,.45.1a4.71,4.71,0,0,1,3.59,4.8,4.42,4.42,0,0,1-.89,2.54c-.28.38-.57.75-.87,1.14-.13.17-.27.34-.4.52l.25.16.65.41.26.17c.2.12.41.25.6.39a.31.31,0,0,0,.42,0l2.77-1.77c1.21-.77,2.46-1.56,3.68-2.35a.74.74,0,0,1,.91,0l3.86,2.48,2.88,1.83a1.54,1.54,0,0,1,.26.25l.12.12h0v12.76h0C1300.1,436.89,1300,437,1299.81,437Zm-2-2.16a.45.45,0,0,0-.25.82l.13.1.24.15,1.43.91c.39.25.58.22.84-.16V423.92l-.11-.12a1.18,1.18,0,0,0-.26-.24l-2.88-1.84-3.87-2.47a.71.71,0,0,0-.88,0l-3.68,2.36-2.77,1.77a.33.33,0,0,1-.44,0l-.6-.4-.26-.16-.65-.42-.27-.17h0l.4-.52c.31-.39.6-.76.88-1.14a4.45,4.45,0,0,0,.88-2.53,4.69,4.69,0,0,0-3.58-4.78l-.44-.1-.21,0h-1l-.13,0a4.69,4.69,0,0,0-3,7.6.45.45,0,0,0,.64.13.46.46,0,0,0,.09-.67.86.86,0,0,1-.07-.1L1278,420a3.64,3.64,0,0,1-.33-3.87,3.79,3.79,0,0,1,6.75-.11,3.75,3.75,0,0,1,.46,2.07,4,4,0,0,1-.79,2c-.53.71-1.08,1.41-1.62,2.09l-.72.91-.44.57-.24.3h0l-.26-.34c-.22-.29-.44-.56-.66-.83a.9.9,0,0,0-.37-.25.4.4,0,0,0-.44.22.44.44,0,0,0,.06.55c.44.56.83,1.07,1.24,1.58a.6.6,0,0,0,.44.29h0a.62.62,0,0,0,.45-.29l.81-1,.57-.73.09-.1,0-.05h0l.62.39c.53.33,1,.65,1.52,1a.66.66,0,0,0,.82,0l4.6-2.93,1.36-.87.16-.1.11-.06h0v5.23c0,.33.18.55.45.55h0c.27,0,.45-.22.46-.54v-5.12s0-.06,0-.09v0h0l0,0,.06,0,.48.31,5.44,3.47a.34.34,0,0,1,.13.25c0,.48,0,1,0,1.43v.29a.43.43,0,0,1,0,.11s0,0,0,.09v0l-.07-.08-.09-.11a3.81,3.81,0,0,0-3.51-1,3.76,3.76,0,0,0-2.78,2.35,3.69,3.69,0,0,0,.52,3.7c.59.79,1.2,1.57,1.8,2.33l.79,1c.17.21.32.31.46.31h0a.64.64,0,0,0,.46-.3l1.25-1.6,1-1.24.13-.17.09-.1v4.24h0l-.09-.05-.15-.09-.31-.2-.65-.41A.59.59,0,0,0,1297.85,434.84Zm-1.46-1.22h0l-.51-.65c-.4-.51-.81-1-1.2-1.55l-.15-.2a7.15,7.15,0,0,1-.79-1.18,2.76,2.76,0,0,1,.09-2.5,2.92,2.92,0,0,1,2.09-1.52,3,3,0,0,1,2.4.67,2.87,2.87,0,0,1,1,2.14,3,3,0,0,1-.67,1.95l-1.28,1.63-.89,1.14,0,0,0,0Zm0-7.62-.46,0a2.88,2.88,0,0,0-2.07,1.51,2.72,2.72,0,0,0-.09,2.48,7.53,7.53,0,0,0,.78,1.18l.16.2c.39.52.8,1,1.19,1.55l.51.64,0,0,0,0,.89-1.14,1.28-1.64a3,3,0,0,0,.67-1.93,2.8,2.8,0,0,0-1-2.12A3,3,0,0,0,1296.37,426Z" transform="translate(-1276.2 -412.96)"/><path class="cls-1" d="M1285.11,435.66l-.2-.11-5.81-3.7a.32.32,0,0,1-.16-.32v-6.3a1,1,0,0,0,0-.3.45.45,0,0,0-.88,0,1.33,1.33,0,0,0,0,.28c0,2.22,0,4.43,0,6.65a.67.67,0,0,0,.33.62q3.43,2.17,6.87,4.38a.63.63,0,0,0,.75,0l5.37-3.43a1,1,0,0,0,.2-.15.46.46,0,0,0,.07-.58.45.45,0,0,0-.55-.17l-.26.14-4.49,2.86-.25.15v-7.73c0-.42-.16-.65-.46-.65s-.47.23-.47.66v7.72Z" transform="translate(-1276.2 -412.96)"/><path class="cls-1" d="M1285.57,437a.69.69,0,0,1-.38-.13l-6.86-4.38a.65.65,0,0,1-.34-.62V425.2a1.33,1.33,0,0,1,0-.28.47.47,0,0,1,.45-.36h0a.47.47,0,0,1,.45.36,1.05,1.05,0,0,1,0,.31v6.3a.3.3,0,0,0,.15.31l4.43,2.82,1.38.88.12.07.07,0v-7.7c0-.43.17-.67.48-.67h0a.43.43,0,0,1,.31.12.74.74,0,0,1,.16.54v7.71l.09-.05.14-.08,1.76-1.12,2.73-1.74a1.82,1.82,0,0,1,.27-.15.46.46,0,0,1,.56.18.47.47,0,0,1-.07.59,1,1,0,0,1-.2.15l-1.64,1-3.73,2.39A.7.7,0,0,1,1285.57,437Zm-7.1-12.4a.45.45,0,0,0-.43.35,1.31,1.31,0,0,0,0,.27v6.65a.66.66,0,0,0,.33.61c2.36,1.5,4.67,3,6.86,4.38a.65.65,0,0,0,.75,0l3.73-2.39,1.64-1c.06-.05.14-.1.2-.16a.44.44,0,0,0,.06-.56.43.43,0,0,0-.53-.17,1.38,1.38,0,0,0-.27.14l-2.73,1.74-1.75,1.12-.15.09-.1.06h0v-7.75a.73.73,0,0,0-.16-.53.4.4,0,0,0-.29-.11h0c-.3,0-.46.23-.46.65v7.74h0l-.08-.05-.12-.07-1.38-.87c-1.45-.93-3-1.89-4.43-2.82a.33.33,0,0,1-.16-.33v-6.3a1,1,0,0,0,0-.3.45.45,0,0,0-.43-.35Z" transform="translate(-1276.2 -412.96)"/><path d="M1281,420.57a2.71,2.71,0,1,0-2.7-2.7A2.7,2.7,0,0,0,1281,420.57Zm0-.93a1.77,1.77,0,1,1,1.78-1.76A1.78,1.78,0,0,1,1281,419.64Z" transform="translate(-1276.2 -412.96)"/><path class="cls-1" d="M1281,420.58h0a2.74,2.74,0,0,1-1.92-.8,2.69,2.69,0,0,1-.79-1.91,2.74,2.74,0,0,1,2.72-2.72h0a2.73,2.73,0,0,1,2.71,2.73A2.72,2.72,0,0,1,1281,420.58Zm0,0h0a2.7,2.7,0,0,0,0-5.39h0a2.7,2.7,0,0,0,0,5.39Zm0-.91h0a1.79,1.79,0,0,1-1.78-1.78,1.79,1.79,0,0,1,1.77-1.78h0a1.81,1.81,0,0,1,1.78,1.79A1.8,1.8,0,0,1,1281,419.65Zm0,0h0a1.75,1.75,0,0,0,1.25-3,1.75,1.75,0,0,0-1.26-.52,1.76,1.76,0,0,0,0,3.52Z" transform="translate(-1276.2 -412.96)"/><path class="cls-1" d="M1292.68,432.46a.48.48,0,0,0,.47-.46.47.47,0,1,0-.47.46Z" transform="translate(-1276.2 -412.96)"/><path class="cls-1" d="M1292.68,432.47a.49.49,0,0,1-.48-.47.48.48,0,0,1,.15-.34.49.49,0,0,1,.34-.14.48.48,0,0,1,0,1Zm0-.93a.45.45,0,0,0-.32.14.45.45,0,0,0,.32.77h0a.46.46,0,1,0,0-.91Z" transform="translate(-1276.2 -412.96)"/><path d="M1286,425.93a.47.47,0,0,0-.45-.48.46.46,0,1,0,0,.92A.47.47,0,0,0,1286,425.93Z" transform="translate(-1276.2 -412.96)"/><path class="cls-1" d="M1285.58,426.38h0a.48.48,0,0,1-.33-.15.55.55,0,0,1-.13-.33.49.49,0,0,1,.48-.46h0a.46.46,0,0,1,.33.16.46.46,0,0,1,.13.33h0a.48.48,0,0,1-.15.32A.45.45,0,0,1,1285.58,426.38Zm0-.92a.47.47,0,0,0-.46.44.43.43,0,0,0,.13.31.44.44,0,0,0,.31.15.43.43,0,0,0,.32-.12.44.44,0,0,0,.15-.31.47.47,0,0,0-.12-.32.5.5,0,0,0-.32-.15Z" transform="translate(-1276.2 -412.96)"/><path d="M1278.81,422.29a.46.46,0,0,0,.45-.47.46.46,0,0,0-.47-.44.47.47,0,0,0-.46.47A.47.47,0,0,0,1278.81,422.29Z" transform="translate(-1276.2 -412.96)"/><path class="cls-1" d="M1278.8,422.3a.47.47,0,0,1-.48-.45.51.51,0,0,1,.13-.33.49.49,0,0,1,.34-.15h0a.47.47,0,0,1,.47.45.41.41,0,0,1-.13.33.44.44,0,0,1-.33.15Zm0,0h0a.45.45,0,0,0,.32-.14.42.42,0,0,0,.12-.31.45.45,0,0,0-.45-.44h0a.43.43,0,0,0-.32.14.48.48,0,0,0-.13.32.45.45,0,0,0,.46.43Z" transform="translate(-1276.2 -412.96)"/><path class="cls-1" d="M1294.63,429a1.79,1.79,0,0,0,1.77,1.77,1.81,1.81,0,0,0,1.78-1.77,1.78,1.78,0,0,0-3.55,0Zm.94,0a.83.83,0,0,1,.82-.84.84.84,0,0,1,.85.83.86.86,0,0,1-.85.85A.83.83,0,0,1,1295.57,429Z" transform="translate(-1276.2 -412.96)"/></svg>