<svg id="圖層_2" data-name="圖層 2" xmlns="http://www.w3.org/2000/svg" xmlns:xlink="http://www.w3.org/1999/xlink" viewBox="0 0 56 56"><defs><style>.cls-1{fill:#fff;}.cls-2{fill:url(#未命名漸層_2);}</style><linearGradient id="未命名漸層_2" x1="0.96" y1="808.73" x2="1.82" y2="807.97" gradientTransform="matrix(52, 0, 0, -52, 122.86, 42399.56)" gradientUnits="userSpaceOnUse"><stop offset="0" stop-color="#e3735c"/><stop offset="1" stop-color="#f4a358"/></linearGradient></defs><title>未命名-1</title><ellipse class="cls-1" cx="28" cy="26.48" rx="14.9" ry="15.82"/><path id="Path_22" data-name="Path 22" class="cls-2" d="M193.21,335.72a28,28,0,1,0,28,28A28,28,0,0,0,193.21,335.72Zm8.4,30.8H196v5.6a2.8,2.8,0,0,1-5.6,0v-5.6h-5.6a2.8,2.8,0,1,1,0-5.6h5.61v-5.6a2.8,2.8,0,1,1,5.6,0v5.6h5.6a2.8,2.8,0,0,1,0,5.6Z" transform="translate(-165.21 -335.72)"/></svg>