<svg id="圖層_1" data-name="圖層 1" xmlns="http://www.w3.org/2000/svg" viewBox="0 0 32 32"><defs><style>.cls-1{fill:#755c68;}.cls-2{fill:none;}.cls-3{fill:#fef9e6;}</style></defs><title>分享</title><circle class="cls-1" cx="16" cy="16" r="16"/><path class="cls-2" d="M290.2,308.58h24v24h-24Z" transform="translate(-287.21 -304.58)"/><path class="cls-3" d="M308.2,324.66a2.91,2.91,0,0,0-2,.77l-7.13-4.15a2.77,2.77,0,0,0,0-1.4l7.05-4.11a3,3,0,1,0-1-2.19,3.27,3.27,0,0,0,.09.7l-7.05,4.11a3,3,0,1,0,0,4.38l7.12,4.16a2.82,2.82,0,0,0-.08.65,2.92,2.92,0,1,0,2.92-2.92Z" transform="translate(-287.21 -304.58)"/></svg>