<svg id="圖層_1" data-name="圖層 1" xmlns="http://www.w3.org/2000/svg" viewBox="0 0 56 56"><defs><style>.cls-1{fill:#fff;}.cls-2{fill:#fef9e6;}.cls-3{fill:none;}.cls-4{fill:#e3735c;}</style></defs><title>定位</title><g id="Group_172" data-name="Group 172"><circle id="Ellipse_8-2" data-name="Ellipse 8-2" class="cls-1" cx="28" cy="26" r="26"/><circle id="Ellipse_7" data-name="Ellipse 7" class="cls-2" cx="28" cy="28" r="28"/><path id="Path_23" data-name="Path 23" class="cls-3" d="M176.82,364h24v24h-24Z" transform="translate(-160.82 -347.95)"/><path id="Path_24" data-name="Path 24" class="cls-4" d="M188.82,372a4,4,0,1,0,4,4A4,4,0,0,0,188.82,372Zm8.94,3a9,9,0,0,0-7.94-7.94V365h-2V367a9,9,0,0,0-7.94,7.94h-2.06v2h2.06a9,9,0,0,0,7.94,7.94V387h2v-2.06a9,9,0,0,0,7.94-7.94h2.06v-2Zm-8.94,8a7,7,0,1,1,5-2.05A7,7,0,0,1,188.82,383Z" transform="translate(-160.82 -347.95)"/></g></svg>