<svg id="圖層_1" data-name="圖層 1" xmlns="http://www.w3.org/2000/svg" viewBox="0 0 24 24"><defs><style>.cls-1{fill:none;}.cls-2{fill:#e2725b;}</style></defs><title>愛心後</title><path class="cls-1" d="M277.66,429.64h24v24h-24Z" transform="translate(-277.66 -429.64)"/><path class="cls-2" d="M294.16,432.82a6,6,0,0,0-4.5,2.09,6,6,0,0,0-4.5-2.09,5.45,5.45,0,0,0-5.5,5.5c0,3.78,3.4,6.86,8.55,11.54l1.45,1.31,1.45-1.32c5.15-4.67,8.55-7.75,8.55-11.53A5.45,5.45,0,0,0,294.16,432.82Z" transform="translate(-277.66 -429.64)"/><path class="cls-2" d="M289.76,448.37l-.1.1-.1-.1c-4.76-4.31-7.9-7.16-7.9-10.05a3.42,3.42,0,0,1,3.5-3.5,3.91,3.91,0,0,1,3.57,2.36h1.87a3.88,3.88,0,0,1,3.56-2.36,3.42,3.42,0,0,1,3.5,3.5C297.66,441.21,294.52,444.06,289.76,448.37Z" transform="translate(-277.66 -429.64)"/></svg>